<svg xmlns="http://www.w3.org/2000/svg" width="256" height="256" viewBox="0 0 256 256"><defs><style>.a{fill:#3498db;}.b{fill:#fff;}</style></defs><title>icon</title><rect class="a" width="256" height="256" rx="127.9999"/><rect class="b" x="53.0148" y="98.9186" width="103.6159" height="105.2469" rx="2"/><path class="b" d="M99.3693,90.61H93.9158V62.9131a10.9937,10.9937,0,0,1,10.9069-11.0786h87.2556a10.9937,10.9937,0,0,1,10.9069,11.0786v88.629a10.9938,10.9938,0,0,1-10.9069,11.0786H164.8109v-5.5393h21.8139a10.9939,10.9939,0,0,0,10.907-11.0786v-77.55a10.9938,10.9938,0,0,0-10.907-11.0786H110.2762A10.9937,10.9937,0,0,0,99.3693,68.4524Z" transform="translate(0 0)"/></svg>